# xmcd
#
# Track frame offsets: 
#        150
#        14481
#        32899
#        51822
#        81801
#        106987
#        148387
#        161800
#        196272
#        201576
#        231584
#        264648
#
# Disc length: 3771 seconds
#
# Revision: 0
# Processed by: cddbd v1.5.2PL0 Copyright (c) Steve Scherf et al.
# Submitted via: ExactAudioCopy v0.99pb5
#
DISCID=b60eb90c
DTITLE=Truck Mills - The Day After Yesterday
DYEAR=2009
DGENRE=
TTITLE0=The Day After Yesterday
TTITLE1=Carmelita Del Barco
TTITLE2=Dorothy With The 800 Legs
TTITLE3=March Of The Midnight Moose
TTITLE4=The Tail Of Lucy Lu
TTITLE5=Rusticus Maximus
TTITLE6=Can't Take It With You
TTITLE7=Lost Love's Lament
TTITLE8=Call Of The Water
TTITLE9=Stanley's Stomp
TTITLE10=Camellero
TTITLE11=Mustaloosa
EXTD=
EXTT0=
EXTT1=
EXTT2=
EXTT3=
EXTT4=
EXTT5=
EXTT6=
EXTT7=
EXTT8=
EXTT9=
EXTT10=
EXTT11=
PLAYORDER=
